{
  "accessors": [
    {
      "bufferView": 2,
      "componentType": 5126,
      "count": 33,
      "max": [
        5.4142041206359863,
        100.26657104492188,
        96.250984191894531
      ],
      "min": [
        -5.4142041206359863,
        -102.36827850341797,
        67.944160461425781
      ],
      "type": "VEC3"
    },
    {
      "bufferView": 1,
      "componentType": 5126,
      "count": 33,
      "max": [
        0,
        0
      ],
      "min": [
        0,
        0
      ],
      "type": "VEC2"
    },
    {
      "bufferView": 0,
      "componentType": 5125,
      "count": 52,
      "max": [
        32
      ],
      "min": [
        0
      ],
      "type": "SCALAR"
    },
    {
      "bufferView": 2,
      "byteOffset": 396,
      "componentType": 5126,
      "count": 45875,
      "max": [
        53.504875183105469,
        103.99203491210938,
        109.99950408935547
      ],
      "min": [
        -53.504875183105469,
        -104.01669311523438,
        -9.9999999747524271e-07
      ],
      "type": "VEC3"
    },
    {
      "bufferView": 2,
      "byteOffset": 550896,
      "componentType": 5126,
      "count": 45875,
      "max": [
        1,
        1,
        1
      ],
      "min": [
        -1,
        -1,
        -1
      ],
      "type": "VEC3"
    },
    {
      "bufferView": 3,
      "componentType": 5126,
      "count": 45875,
      "max": [
        1,
        1,
        1,
        1
      ],
      "min": [
        -1,
        -1,
        -1,
        -1
      ],
      "type": "VEC4"
    },
    {
      "bufferView": 1,
      "byteOffset": 264,
      "componentType": 5126,
      "count": 45875,
      "max": [
        0.99749201536178589,
        0.99692201614379883
      ],
      "min": [
        0.0025080000050365925,
        0.0025080000050365925
      ],
      "type": "VEC2"
    },
    {
      "bufferView": 0,
      "byteOffset": 208,
      "componentType": 5125,
      "count": 103926,
      "max": [
        45874
      ],
      "min": [
        0
      ],
      "type": "SCALAR"
    },
    {
      "bufferView": 2,
      "byteOffset": 1101396,
      "componentType": 5126,
      "count": 2444,
      "max": [
        53.440578460693359,
        103.97003936767578,
        101.65980529785156
      ],
      "min": [
        -53.440578460693359,
        -103.98207855224609,
        29.999965667724609
      ],
      "type": "VEC3"
    },
    {
      "bufferView": 2,
      "byteOffset": 1130724,
      "componentType": 5126,
      "count": 2444,
      "max": [
        1,
        1,
        1
      ],
      "min": [
        -1,
        -1,
        -1
      ],
      "type": "VEC3"
    },
    {
      "bufferView": 3,
      "byteOffset": 734000,
      "componentType": 5126,
      "count": 2444,
      "max": [
        1,
        1,
        1,
        1
      ],
      "min": [
        -1,
        -1,
        -1,
        -1
      ],
      "type": "VEC4"
    },
    {
      "bufferView": 1,
      "byteOffset": 367264,
      "componentType": 5126,
      "count": 2444,
      "max": [
        0.99740302562713623,
        0.98950701951980591
      ],
      "min": [
        0.0025100000202655792,
        0.0025080000050365925
      ],
      "type": "VEC2"
    },
    {
      "bufferView": 0,
      "byteOffset": 415912,
      "componentType": 5125,
      "count": 11160,
      "max": [
        2443
      ],
      "min": [
        0
      ],
      "type": "SCALAR"
    },
    {
      "bufferView": 2,
      "byteOffset": 1160052,
      "componentType": 5126,
      "count": 3360,
      "max": [
        49.699996948242188,
        98.500007629394531,
        41.999980926513672
      ],
      "min": [
        -49.700000762939453,
        -98.499992370605469,
        29.999980926513672
      ],
      "type": "VEC3"
    },
    {
      "bufferView": 2,
      "byteOffset": 1200372,
      "componentType": 5126,
      "count": 3360,
      "max": [
        1,
        1,
        1
      ],
      "min": [
        -1,
        -1,
        -1
      ],
      "type": "VEC3"
    },
    {
      "bufferView": 3,
      "byteOffset": 773104,
      "componentType": 5126,
      "count": 3360,
      "max": [
        1,
        1,
        1,
        1
      ],
      "min": [
        -1,
        -1,
        -1,
        -1
      ],
      "type": "VEC4"
    },
    {
      "bufferView": 1,
      "byteOffset": 386816,
      "componentType": 5126,
      "count": 3360,
      "max": [
        0.98802602291107178,
        0.98191201686859131
      ],
      "min": [
        0.011935999616980553,
        0.011939000338315964
      ],
      "type": "VEC2"
    },
    {
      "bufferView": 0,
      "byteOffset": 460552,
      "componentType": 5125,
      "count": 9552,
      "max": [
        3359
      ],
      "min": [
        0
      ],
      "type": "SCALAR"
    },
    {
      "bufferView": 2,
      "byteOffset": 1240692,
      "componentType": 5126,
      "count": 340,
      "max": [
        49.5,
        89.350006103515625,
        36.799968719482422
      ],
      "min": [
        -49.5,
        -92.349998474121094,
        34.999965667724609
      ],
      "type": "VEC3"
    },
    {
      "bufferView": 2,
      "byteOffset": 1244772,
      "componentType": 5126,
      "count": 340,
      "max": [
        9.9998898804187775e-05,
        0.99955886602401733,
        0.99998903274536133
      ],
      "min": [
        -9.9998898804187775e-05,
        -0.99955886602401733,
        -0.99998903274536133
      ],
      "type": "VEC3"
    },
    {
      "bufferView": 3,
      "byteOffset": 826864,
      "componentType": 5126,
      "count": 340,
      "max": [
        1,
        2.8358828785712831e-05,
        9.9997785582672805e-05,
        1
      ],
      "min": [
        -1,
        -2.8010825189994648e-05,
        -9.9997800134588033e-05,
        1
      ],
      "type": "VEC4"
    },
    {
      "bufferView": 1,
      "byteOffset": 413696,
      "componentType": 5126,
      "count": 340,
      "max": [
        1.0496209859848022,
        0.97904598712921143
      ],
      "min": [
        0.050082001835107803,
        0.019457999616861343
      ],
      "type": "VEC2"
    },
    {
      "bufferView": 0,
      "byteOffset": 498760,
      "componentType": 5125,
      "count": 960,
      "max": [
        339
      ],
      "min": [
        0
      ],
      "type": "SCALAR"
    }
  ],
  "asset": {
    "extras": {
      "author": "Interiors3D (https://sketchfab.com/Interiors3D)",
      "license": "CC-BY-4.0 (http://creativecommons.org/licenses/by/4.0/)",
      "source": "https://sketchfab.com/3d-models/ppl500-669e7cbdfce64414a2c997811c9120c0",
      "title": "PPL500"
    },
    "generator": "Sketchfab-8.85.0",
    "version": "2.0"
  },
  "bufferViews": [
    {
      "buffer": 0,
      "byteLength": 502600,
      "byteOffset": 0,
      "name": "floatBufferViews",
      "target": 34963
    },
    {
      "buffer": 0,
      "byteLength": 416416,
      "byteOffset": 502600,
      "byteStride": 8,
      "name": "floatBufferViews",
      "target": 34962
    },
    {
      "buffer": 0,
      "byteLength": 1248852,
      "byteOffset": 919016,
      "byteStride": 12,
      "name": "floatBufferViews",
      "target": 34962
    },
    {
      "buffer": 0,
      "byteLength": 832304,
      "byteOffset": 2167868,
      "byteStride": 16,
      "name": "floatBufferViews",
      "target": 34962
    }
  ],
  "buffers": [
    {
      "byteLength": 3000172,
      "uri": "scene.bin"
    }
  ],
  "images": [
    {
      "uri": "textures/Romance_baseColor.jpeg"
    },
    {
      "uri": "textures/Romance_metallicRoughness.png"
    },
    {
      "uri": "textures/Romance_normal.png"
    },
    {
      "uri": "textures/metal_baseColor.jpeg"
    },
    {
      "uri": "textures/metal_normal.png"
    },
    {
      "uri": "textures/natwood_baseColor.jpeg"
    },
    {
      "uri": "textures/natwood_metallicRoughness.png"
    },
    {
      "uri": "textures/natwood_normal.png"
    }
  ],
  "materials": [
    {
      "doubleSided": true,
      "name": "Romance",
      "normalTexture": {
        "index": 2,
        "scale": 1,
        "texCoord": 0
      },
      "pbrMetallicRoughness": {
        "baseColorFactor": [
          0.90000000000000002,
          0.90000000000000002,
          0.90000000000000002,
          1
        ],
        "baseColorTexture": {
          "index": 0,
          "texCoord": 0
        },
        "metallicFactor": 0,
        "metallicRoughnessTexture": {
          "index": 1,
          "texCoord": 0
        },
        "roughnessFactor": 1
      }
    },
    {
      "doubleSided": true,
      "name": "metal",
      "normalTexture": {
        "index": 4,
        "scale": 1,
        "texCoord": 0
      },
      "pbrMetallicRoughness": {
        "baseColorFactor": [
          1,
          1,
          1,
          1
        ],
        "baseColorTexture": {
          "index": 3,
          "texCoord": 0
        },
        "metallicFactor": 1,
        "roughnessFactor": 0.19364916731037085
      }
    },
    {
      "doubleSided": true,
      "name": "natwood",
      "normalTexture": {
        "index": 7,
        "scale": 1,
        "texCoord": 0
      },
      "pbrMetallicRoughness": {
        "baseColorFactor": [
          1,
          1,
          1,
          1
        ],
        "baseColorTexture": {
          "index": 5,
          "texCoord": 0
        },
        "metallicFactor": 0,
        "metallicRoughnessTexture": {
          "index": 6,
          "texCoord": 0
        },
        "roughnessFactor": 1
      }
    }
  ],
  "meshes": [
    {
      "primitives": [
        {
          "attributes": {
            "POSITION": 0,
            "TEXCOORD_0": 1
          },
          "indices": 2,
          "material": 0,
          "mode": 1
        }
      ]
    },
    {
      "primitives": [
        {
          "attributes": {
            "NORMAL": 4,
            "POSITION": 3,
            "TANGENT": 5,
            "TEXCOORD_0": 6
          },
          "indices": 7,
          "material": 0,
          "mode": 4
        }
      ]
    },
    {
      "primitives": [
        {
          "attributes": {
            "NORMAL": 9,
            "POSITION": 8,
            "TANGENT": 10,
            "TEXCOORD_0": 11
          },
          "indices": 12,
          "material": 0,
          "mode": 4
        }
      ]
    },
    {
      "primitives": [
        {
          "attributes": {
            "NORMAL": 14,
            "POSITION": 13,
            "TANGENT": 15,
            "TEXCOORD_0": 16
          },
          "indices": 17,
          "material": 1,
          "mode": 4
        }
      ]
    },
    {
      "primitives": [
        {
          "attributes": {
            "NORMAL": 19,
            "POSITION": 18,
            "TANGENT": 20,
            "TEXCOORD_0": 21
          },
          "indices": 22,
          "material": 2,
          "mode": 4
        }
      ]
    }
  ],
  "nodes": [
    {
      "children": [
        1
      ],
      "name": "RootNode (gltf orientation matrix)",
      "rotation": [
        -0.70710678118654746,
        -0,
        -0,
        0.70710678118654757
      ]
    },
    {
      "children": [
        2
      ],
      "name": "RootNode (model correction matrix)"
    },
    {
      "children": [
        3,
        4,
        5,
        6,
        7
      ],
      "name": "W25 - PPL500 - Sketchfab - mesh.obj.cleaner.materialmerger.gles"
    },
    {
      "mesh": 0,
      "name": ""
    },
    {
      "mesh": 1,
      "name": ""
    },
    {
      "mesh": 2,
      "name": ""
    },
    {
      "mesh": 3,
      "name": ""
    },
    {
      "mesh": 4,
      "name": ""
    }
  ],
  "samplers": [
    {
      "magFilter": 9729,
      "minFilter": 9987,
      "wrapS": 10497,
      "wrapT": 10497
    }
  ],
  "scene": 0,
  "scenes": [
    {
      "name": "OSG_Scene",
      "nodes": [
        0
      ]
    }
  ],
  "textures": [
    {
      "sampler": 0,
      "source": 0
    },
    {
      "sampler": 0,
      "source": 1
    },
    {
      "sampler": 0,
      "source": 2
    },
    {
      "sampler": 0,
      "source": 3
    },
    {
      "sampler": 0,
      "source": 4
    },
    {
      "sampler": 0,
      "source": 5
    },
    {
      "sampler": 0,
      "source": 6
    },
    {
      "sampler": 0,
      "source": 7
    }
  ]
}

